<?xml version="1.0" encoding="utf-8"?>
<!-- Generator: Adobe Illustrator 24.2.3, SVG Export Plug-In . SVG Version: 6.00 Build 0)  -->
<svg version="1.1" id="Layer_1" xmlns="http://www.w3.org/2000/svg" xmlns:xlink="http://www.w3.org/1999/xlink" x="0px" y="0px"
	 viewBox="0 0 1920 1080" style="enable-background:new 0 0 1920 1080;" xml:space="preserve">
<style type="text/css">
	.st0{fill:none;stroke:#246001;stroke-width:3.7127;stroke-miterlimit:10;}
</style>
<path class="st0" d="M529.92,542.76c-41.17-3.19-55.19,6.09-68.54,14.94c-12.75,8.44-24.98,16.54-53.31,15.95
	c3.27,7.49,7.1,14.68,11.44,21.52c10.33-8.01,29.23-18.97,53.32-16.7C499.37,580.98,524.79,549.51,529.92,542.76L529.92,542.76z
	 M402.7,559.58c28.31,1.67,39.43-5.69,51.06-13.39c15.27-10.11,31.29-20.72,76.9-17.22l0.64-57.16
	c-13.37-23.64-35.01-38.16-59.19-47.64c-24.95-9.78-52.79-14.31-77.3-17.89v103.77C394.8,527.31,397.57,543.96,402.7,559.58
	L402.7,559.58z M578.85,528.97c45.6-3.51,61.63,7.11,76.9,17.22c11.63,7.7,22.75,15.07,51.06,13.39c5.12-15.61,7.9-32.26,7.9-49.53
	V406.28c-24.52,3.57-52.35,8.1-77.3,17.89c-24.18,9.48-45.82,24-59.19,47.65L578.85,528.97L578.85,528.97z M701.43,573.65
	c-28.33,0.59-40.56-7.51-53.31-15.95c-13.35-8.84-27.37-18.12-68.54-14.94c5.12,6.75,30.54,38.22,57.09,35.71
	c24.09-2.28,42.99,8.69,53.32,16.7C694.33,588.33,698.16,581.14,701.43,573.65L701.43,573.65z M622.74,613.42
	c-11.16,6.57-14.34,23.99-16.97,38.44c-0.67,3.66-1.3,7.17-2.05,10.42c11-3.56,21.48-8.29,31.31-14.04
	C632.01,637.38,627.28,624.68,622.74,613.42L622.74,613.42z M588.11,666.47c1.62-3.53,2.79-9.93,4.08-17.04
	c3.3-18.11,7.29-39.98,25.19-48.84c-2.41-5.63-4.5-10.29-5.88-13.32c-13.09-5.86-24.4-15.7-32.28-23.84l1.17,104.5
	C582.99,667.5,585.56,667.02,588.11,666.47L588.11,666.47z M492.12,600.58c17.91,8.86,21.89,30.74,25.19,48.84
	c1.29,7.12,2.46,13.51,4.08,17.04c2.55,0.55,5.12,1.03,7.71,1.45l1.17-104.5c-7.88,8.15-19.19,17.98-32.28,23.85
	C496.62,590.29,494.53,594.96,492.12,600.58L492.12,600.58z M505.78,662.28c-0.74-3.25-1.38-6.76-2.05-10.42
	c-2.63-14.45-5.81-31.87-16.97-38.44c-4.55,11.26-9.27,23.96-12.29,34.82C484.3,653.99,494.78,658.72,505.78,662.28L505.78,662.28z
	 M581.25,215.75c0,0-1.42-12.3-21.08-10.39C570.63,222.12,581.25,215.75,581.25,215.75L581.25,215.75z M528.25,215.75
	c0,0,1.42-12.3,21.08-10.39C538.87,222.12,528.25,215.75,528.25,215.75L528.25,215.75z M554.97,299.22c0,0,16.42-10.92-0.52-37.42
	C538.25,288.76,554.97,299.22,554.97,299.22L554.97,299.22z M503.94,447.72c0,0-1.08,21.77-35.82,20.68
	C484.55,437.76,503.94,447.72,503.94,447.72L503.94,447.72z M605.56,447.72c0,0,1.08,21.77,35.82,20.68
	C624.95,437.76,605.56,447.72,605.56,447.72L605.56,447.72z M651.79,244.35c0,0,16.45-10.88,34.27,15.03
	C654.92,263.82,651.79,244.35,651.79,244.35L651.79,244.35z M607.89,216.19c0,0,1.82-15.76,27-13.31
	C621.5,224.35,607.89,216.19,607.89,216.19L607.89,216.19z M503.32,216.19c0,0-1.82-15.76-27-13.31
	C489.71,224.35,503.32,216.19,503.32,216.19L503.32,216.19z M459.41,244.35c0,0-16.45-10.88-34.27,15.03
	C456.28,263.82,459.41,244.35,459.41,244.35L459.41,244.35z M447.7,360.13c0,0,8.4,14.61-14.65,28.41
	C430.93,361.76,447.7,360.13,447.7,360.13L447.7,360.13z M426.61,342.98c0,0-16.85-0.03-17.28-26.9
	C433.58,327.65,426.61,342.98,426.61,342.98L426.61,342.98z M661.8,360.13c0,0-8.4,14.61,14.65,28.41
	C678.57,361.76,661.8,360.13,661.8,360.13L661.8,360.13z M682.89,342.98c0,0,16.85-0.03,17.28-26.9
	C675.91,327.65,682.89,342.98,682.89,342.98L682.89,342.98z M616.41,331.48c0,0,8.4-14.61-14.65-28.41
	C599.64,329.85,616.41,331.48,616.41,331.48L616.41,331.48z M495.97,331.48c0,0-8.4-14.61,14.65-28.41
	C512.74,329.85,495.97,331.48,495.97,331.48L495.97,331.48z M584.73,267.12c0,0-19.68,1.2-22.16-30.15
	C591.75,248.69,584.73,267.12,584.73,267.12L584.73,267.12z M521.66,267.12c0,0,19.68,1.2,22.16-30.15
	C514.64,248.69,521.66,267.12,521.66,267.12L521.66,267.12z M622.71,407.57c0,0,25.74-8.28,13.28-49.55
	C604.56,387.53,622.71,407.57,622.71,407.57L622.71,407.57z M658.52,427.37c0,0,1.33,27,44.43,25.65
	C682.57,415.03,658.52,427.37,658.52,427.37L658.52,427.37z M481.07,407.57c0,0-25.74-8.28-13.28-49.55
	C499.22,387.53,481.07,407.57,481.07,407.57L481.07,407.57z M445.26,427.37c0,0-1.33,27-44.43,25.65
	C421.2,415.03,445.26,427.37,445.26,427.37L445.26,427.37z M577.95,448.14c14.61-17.16,33.71-28.71,54.43-36.84
	c27.01-10.59,56.58-15.25,82.33-18.98v-11.7c-8.48-11.98-22.84-15.69-36.51-19.21c-18.14-4.68-35.28-9.1-42.3-28.48
	c-23.75,22.3-44.86,56.36-58,111.2L577.95,448.14L577.95,448.14z M394.8,392.32c25.75,3.73,55.32,8.39,82.33,18.98
	c20.72,8.12,39.82,19.68,54.43,36.84l0.04-4c-13.14-54.84-34.24-88.9-57.99-111.2c-7.02,19.37-24.17,23.8-42.3,28.48
	c-13.67,3.52-28.03,7.23-36.51,19.21V392.32L394.8,392.32z M628.75,592.13c5.56,12.8,13.42,31.92,18.38,48.29
	c7.34-5.23,14.23-11.05,20.59-17.41c5.18-5.18,10-10.71,14.44-16.55c-8.21-6.57-23.95-16.16-44.18-14.25
	C634.86,592.5,631.78,592.46,628.75,592.13L628.75,592.13z M462.37,640.42c4.95-16.37,12.82-35.49,18.38-48.29
	c-3.03,0.33-6.11,0.38-9.22,0.08c-20.23-1.91-35.97,7.69-44.18,14.25c4.44,5.84,9.26,11.37,14.44,16.55
	C448.14,629.37,455.03,635.19,462.37,640.42L462.37,640.42z M647.49,323.09c3.46,17.06,18.31,20.89,34.11,24.97
	c11.39,2.94,23.18,5.98,33.1,13.15v-23.25c0-15.75-2.31-31-6.61-45.4C688.52,299.24,667.32,307.87,647.49,323.09L647.49,323.09z
	 M394.8,361.21c9.92-7.17,21.71-10.22,33.1-13.15c15.81-4.08,30.66-7.91,34.11-24.97c-19.83-15.22-41.03-23.85-60.61-30.54
	c-4.3,14.41-6.61,29.65-6.61,45.4V361.21L394.8,361.21z M577.4,398.82c14.18-36.71,32.75-61.72,52.92-79.51
	c12.51-11.03,25.56-19.22,38.53-25.68c-2.13-0.28-4.31-0.59-6.52-0.91c-21.88-3.1-48.63-6.89-73.86,12.92l-0.26-0.33
	c-7.4,17.28-11.42,38.07-11.14,63.87L577.4,398.82L577.4,398.82z M441.13,293.87c12.81,6.42,25.7,14.55,38.05,25.44
	c20.18,17.79,38.74,42.8,52.92,79.5l0.33-29.63c0.3-26.71-4.03-48.05-11.93-65.68c-24.38-17.38-49.95-13.76-71-10.78
	C446.64,293.13,443.85,293.52,441.13,293.87L441.13,293.87z M587.88,181.48c-2.78,11.54,5.58,21.05,14.42,31.1
	c7.93,9.01,16.15,18.36,19.57,30.21c11.78-8.91,24.87-16.8,38.87-24.37C640.37,200.33,615.41,187.33,587.88,181.48L587.88,181.48z
	 M609.59,252.91c-0.81-12.02-9.44-21.83-17.67-31.19c-11.4-12.96-22.2-25.24-17.87-42.54c-6.33-0.77-12.77-1.17-19.3-1.17
	s-12.97,0.4-19.3,1.17c4.33,17.3-6.47,29.58-17.87,42.54c-8.24,9.36-16.87,19.18-17.67,31.2c5.51,4.97,10.63,10.28,15.32,16.01
	c6.33,7.74,11.84,16.21,16.38,25.62c0.1,0.08,0.2,0.15,0.3,0.23l-0.12,0.15c9.53,19.9,14.77,44.01,14.43,74.37l-3.35,300.27
	c3.92,0.29,7.88,0.44,11.87,0.44c3.99,0,7.95-0.15,11.88-0.44l-3.35-300.27c-0.5-44.97,11.24-76.23,31-100.38
	C598.96,263.18,604.09,257.88,609.59,252.91L609.59,252.91z M487.63,242.78c3.41-11.86,11.64-21.21,19.57-30.21
	c8.84-10.04,17.2-19.55,14.42-31.09c-27.52,5.86-52.49,18.85-72.85,36.93C462.76,225.99,475.86,233.88,487.63,242.78L487.63,242.78z
	 M601.41,282.26c22.46-8.93,44.2-5.85,62.8-3.22c16.61,2.35,30.17,4.28,36.91-5.38c-7.41-16.73-17.61-31.99-30-45.15
	c-26.41,14.04-49.53,28.86-66.14,49.17C603.76,279.17,602.57,280.7,601.41,282.26L601.41,282.26z M409.38,271.44
	c6.17,12.15,20.45,10.13,38.23,7.61c17.71-2.51,38.26-5.42,59.57,2.01c-0.87-1.15-1.76-2.27-2.66-3.38
	c-16.61-20.3-39.73-35.13-66.14-49.17C426.54,241.09,416.69,255.57,409.38,271.44L409.38,271.44z"/>
</svg>
